<svg xmlns="http://www.w3.org/2000/svg" width="1440" height="900"><path d="M792,464L766,236L722,324Z" fill="#b6589c" stroke="#b6589c" stroke-width="1.51"/><path d="M792,464L976,433L766,236Z" fill="#b2569c" stroke="#b2569c" stroke-width="1.51"/><path d="M976,433L1027,228L766,236Z" fill="#b3569c" stroke="#b3569c" stroke-width="1.51"/><path d="M976,433L1081,422L1027,228Z" fill="#ad549d" stroke="#ad549d" stroke-width="1.51"/><path d="M1073,507L1081,422L976,433Z" fill="#a8529d" stroke="#a8529d" stroke-width="1.51"/><path d="M918,610L1073,507L976,433Z" fill="#a7519e" stroke="#a7519e" stroke-width="1.51"/><path d="M1027,228L832,74L766,236Z" fill="#ba599c" stroke="#ba599c" stroke-width="1.51"/><path d="M766,236L588,232L722,324Z" fill="#bc5a9b" stroke="#bc5a9b" stroke-width="1.51"/><path d="M792,464L918,610L976,433Z" fill="#ab539d" stroke="#ab539d" stroke-width="1.51"/><path d="M722,324L434,606L792,464Z" fill="#b4579c" stroke="#b4579c" stroke-width="1.51"/><path d="M727,786L985,708L918,610Z" fill="#a24f9e" stroke="#a24f9e" stroke-width="1.51"/><path d="M832,74L588,232L766,236Z" fill="#bf5b9b" stroke="#bf5b9b" stroke-width="1.51"/><path d="M832,74L791,-48L588,232Z" fill="#c35d9b" stroke="#c35d9b" stroke-width="1.51"/><path d="M1027,228L902,4L832,74Z" fill="#bb5a9b" stroke="#bb5a9b" stroke-width="1.51"/><path d="M1081,422L1229,401L1027,228Z" fill="#aa539d" stroke="#aa539d" stroke-width="1.51"/><path d="M1057,-280L866,-161L902,4Z" fill="#c65f9a" stroke="#c65f9a" stroke-width="1.51"/><path d="M1073,507L1229,401L1081,422Z" fill="#a5519d" stroke="#a5519d" stroke-width="1.51"/><path d="M1073,507L1204,654L1229,401Z" fill="#a04f9e" stroke="#a04f9e" stroke-width="1.51"/><path d="M918,610L985,708L1073,507Z" fill="#a34f9e" stroke="#a34f9e" stroke-width="1.51"/><path d="M727,786L918,610L792,464Z" fill="#a8529d" stroke="#a8529d" stroke-width="1.51"/><path d="M902,4L791,-48L832,74Z" fill="#c25d9b" stroke="#c25d9b" stroke-width="1.51"/><path d="M588,232L446,304L722,324Z" fill="#be5b9b" stroke="#be5b9b" stroke-width="1.51"/><path d="M399,40L446,304L588,232Z" fill="#c65e9b" stroke="#c65e9b" stroke-width="1.51"/><path d="M985,708L1204,654L1073,507Z" fill="#9f4e9e" stroke="#9f4e9e" stroke-width="1.51"/><path d="M434,606L727,786L792,464Z" fill="#ad549d" stroke="#ad549d" stroke-width="1.51"/><path d="M985,708L1097,1017L1204,654Z" fill="#974b9f" stroke="#974b9f" stroke-width="1.51"/><path d="M461,-109L399,40L588,232Z" fill="#cc619a" stroke="#cc619a" stroke-width="1.51"/><path d="M902,4L866,-161L791,-48Z" fill="#c55f9a" stroke="#c55f9a" stroke-width="1.51"/><path d="M1212,-141L902,4L1027,228Z" fill="#bb5a9b" stroke="#bb5a9b" stroke-width="1.51"/><path d="M446,304L434,606L722,324Z" fill="#bb5a9c" stroke="#bb5a9c" stroke-width="1.51"/><path d="M866,-161L744,-167L791,-48Z" fill="#c9609a" stroke="#c9609a" stroke-width="1.51"/><path d="M727,786L864,893L985,708Z" fill="#9f4e9e" stroke="#9f4e9e" stroke-width="1.51"/><path d="M434,606L617,820L727,786Z" fill="#aa539d" stroke="#aa539d" stroke-width="1.51"/><path d="M681,870L864,893L727,786Z" fill="#9f4e9e" stroke="#9f4e9e" stroke-width="1.51"/><path d="M446,304L274,298L434,606Z" fill="#c05c9b" stroke="#c05c9b" stroke-width="1.51"/><path d="M461,-109L588,232L791,-48Z" fill="#c9609a" stroke="#c9609a" stroke-width="1.51"/><path d="M617,820L681,870L727,786Z" fill="#a3509e" stroke="#a3509e" stroke-width="1.51"/><path d="M1385,658L1352,631L1204,654Z" fill="#964a9f" stroke="#964a9f" stroke-width="1.51"/><path d="M1204,654L1352,631L1229,401Z" fill="#9b4d9e" stroke="#9b4d9e" stroke-width="1.51"/><path d="M235,127L274,298L446,304Z" fill="#c9609a" stroke="#c9609a" stroke-width="1.51"/><path d="M1409,75L1027,228L1229,401Z" fill="#ac549d" stroke="#ac549d" stroke-width="1.51"/><path d="M1329,-61L1212,-141L1027,228Z" fill="#b7599c" stroke="#b7599c" stroke-width="1.51"/><path d="M1352,631L1452,438L1229,401Z" fill="#9c4d9e" stroke="#9c4d9e" stroke-width="1.51"/><path d="M744,-167L461,-109L791,-48Z" fill="#cd629a" stroke="#cd629a" stroke-width="1.51"/><path d="M399,40L235,127L446,304Z" fill="#cc619a" stroke="#cc619a" stroke-width="1.51"/><path d="M1502,142L1409,75L1229,401Z" fill="#a8529d" stroke="#a8529d" stroke-width="1.51"/><path d="M1243,1000L1385,658L1204,654Z" fill="#91489f" stroke="#91489f" stroke-width="1.51"/><path d="M1352,631L1550,556L1452,438Z" fill="#964b9f" stroke="#964b9f" stroke-width="1.51"/><path d="M1409,75L1329,-61L1027,228Z" fill="#b1569c" stroke="#b1569c" stroke-width="1.51"/><path d="M434,606L331,665L617,820Z" fill="#b0559c" stroke="#b0559c" stroke-width="1.51"/><path d="M617,820L647,1066L681,870Z" fill="#a04e9e" stroke="#a04e9e" stroke-width="1.51"/><path d="M274,298L317,633L434,606Z" fill="#bc5a9c" stroke="#bc5a9c" stroke-width="1.51"/><path d="M317,633L331,665L434,606Z" fill="#b6589c" stroke="#b6589c" stroke-width="1.51"/><path d="M1329,-61L1233,-177L1212,-141Z" fill="#bb5a9b" stroke="#bb5a9b" stroke-width="1.51"/><path d="M1212,-141L1057,-280L902,4Z" fill="#c25d9a" stroke="#c25d9a" stroke-width="1.51"/><path d="M866,-161L1057,-280L744,-167Z" fill="#ca619a" stroke="#ca619a" stroke-width="1.51"/><path d="M1233,-177L1057,-280L1212,-141Z" fill="#c25c9b" stroke="#c25c9b" stroke-width="1.51"/><path d="M744,-167L475,-258L461,-109Z" fill="#d46599" stroke="#d46599" stroke-width="1.51"/><path d="M274,298L74,626L317,633Z" fill="#c05c9b" stroke="#c05c9b" stroke-width="1.51"/><path d="M140,-160L235,127L399,40Z" fill="#d56699" stroke="#d56699" stroke-width="1.51"/><path d="M235,127L202,271L274,298Z" fill="#cc619a" stroke="#cc619a" stroke-width="1.51"/><path d="M1409,75L1482,-207L1329,-61Z" fill="#b3579c" stroke="#b3579c" stroke-width="1.51"/><path d="M1329,-61L1482,-207L1233,-177Z" fill="#b9599b" stroke="#b9599b" stroke-width="1.51"/><path d="M1452,438L1502,142L1229,401Z" fill="#a24f9e" stroke="#a24f9e" stroke-width="1.51"/><path d="M461,-109L140,-160L399,40Z" fill="#d76699" stroke="#d76699" stroke-width="1.51"/><path d="M409,-330L475,-258L744,-167Z" fill="#d76798" stroke="#d76798" stroke-width="1.51"/><path d="M864,893L1097,1017L985,708Z" fill="#964b9f" stroke="#964b9f" stroke-width="1.51"/><path d="M1068,1061L1097,1017L864,893Z" fill="#8f489f" stroke="#8f489f" stroke-width="1.51"/><path d="M1452,438L1658,258L1502,142Z" fill="#9f4e9e" stroke="#9f4e9e" stroke-width="1.51"/><path d="M1385,658L1550,556L1352,631Z" fill="#934a9f" stroke="#934a9f" stroke-width="1.51"/><path d="M1590,716L1550,556L1385,658Z" fill="#8f489f" stroke="#8f489f" stroke-width="1.51"/><path d="M980,1189L1068,1061L864,893Z" fill="#8e48a0" stroke="#8e48a0" stroke-width="1.51"/><path d="M331,665L421,941L617,820Z" fill="#ab539d" stroke="#ab539d" stroke-width="1.51"/><path d="M274,911L421,941L331,665Z" fill="#ad549d" stroke="#ad549d" stroke-width="1.51"/><path d="M1097,1017L1243,1000L1204,654Z" fill="#8f48a0" stroke="#8f48a0" stroke-width="1.51"/><path d="M647,1066L864,893L681,870Z" fill="#9c4d9e" stroke="#9c4d9e" stroke-width="1.51"/><path d="M421,941L647,1066L617,820Z" fill="#a14f9e" stroke="#a14f9e" stroke-width="1.51"/><path d="M1068,1061L1243,1000L1097,1017Z" fill="#8a469f" stroke="#8a469f" stroke-width="1.51"/><path d="M235,127L89,217L202,271Z" fill="#cf6399" stroke="#cf6399" stroke-width="1.51"/><path d="M202,271L74,626L274,298Z" fill="#c65f9a" stroke="#c65f9a" stroke-width="1.51"/><path d="M71,664L274,911L331,665Z" fill="#b5589c" stroke="#b5589c" stroke-width="1.51"/><path d="M24,-51L89,217L235,127Z" fill="#d66699" stroke="#d66699" stroke-width="1.51"/><path d="M1627,-99L1482,-207L1409,75Z" fill="#b1569c" stroke="#b1569c" stroke-width="1.51"/><path d="M1550,556L1658,258L1452,438Z" fill="#984c9f" stroke="#984c9f" stroke-width="1.51"/><path d="M475,-258L409,-330L461,-109Z" fill="#d96898" stroke="#d96898" stroke-width="1.51"/><path d="M1057,-280L409,-330L744,-167Z" fill="#d26499" stroke="#d26499" stroke-width="1.51"/><path d="M1550,556L1766,470L1658,258Z" fill="#944a9f" stroke="#944a9f" stroke-width="1.51"/><path d="M1543,1039L1590,716L1385,658Z" fill="#8745a0" stroke="#8745a0" stroke-width="1.51"/><path d="M421,941L607,1126L647,1066Z" fill="#9d4e9e" stroke="#9d4e9e" stroke-width="1.51"/><path d="M71,664L331,665L317,633Z" fill="#b9599c" stroke="#b9599c" stroke-width="1.51"/><path d="M1627,-99L1409,75L1502,142Z" fill="#ab539c" stroke="#ab539c" stroke-width="1.51"/><path d="M1233,-177L1482,-207L1057,-280Z" fill="#bf5c9b" stroke="#bf5c9b" stroke-width="1.51"/><path d="M378,1105L607,1126L421,941Z" fill="#9f4e9e" stroke="#9f4e9e" stroke-width="1.51"/><path d="M647,1066L980,1189L864,893Z" fill="#934a9f" stroke="#934a9f" stroke-width="1.51"/><path d="M89,217L74,626L202,271Z" fill="#ca609a" stroke="#ca609a" stroke-width="1.51"/><path d="M607,1126L980,1189L647,1066Z" fill="#924a9f" stroke="#924a9f" stroke-width="1.51"/><path d="M1068,1061L1423,1193L1243,1000Z" fill="#8244a0" stroke="#8244a0" stroke-width="1.51"/><path d="M74,626L71,664L317,633Z" fill="#bc5b9b" stroke="#bc5b9b" stroke-width="1.51"/><path d="M-118,569L71,664L74,626Z" fill="#c25d9a" stroke="#c25d9a" stroke-width="1.51"/><path d="M1800,52L1627,-99L1502,142Z" fill="#a7519d" stroke="#a7519d" stroke-width="1.51"/><path d="M409,-330L140,-160L461,-109Z" fill="#dc6898" stroke="#dc6898" stroke-width="1.51"/><path d="M607,1126L-6,1197L980,1189Z" fill="#984c9e" stroke="#984c9e" stroke-width="1.51"/><path d="M274,911L378,1105L421,941Z" fill="#a6519d" stroke="#a6519d" stroke-width="1.51"/><path d="M76,964L378,1105L274,911Z" fill="#aa539d" stroke="#aa539d" stroke-width="1.51"/><path d="M1726,656L1766,470L1550,556Z" fill="#8d479f" stroke="#8d479f" stroke-width="1.51"/><path d="M1800,52L1660,-120L1627,-99Z" fill="#a9529d" stroke="#a9529d" stroke-width="1.51"/><path d="M1590,716L1726,656L1550,556Z" fill="#8b47a0" stroke="#8b47a0" stroke-width="1.51"/><path d="M1662,911L1726,656L1590,716Z" fill="#8444a0" stroke="#8444a0" stroke-width="1.51"/><path d="M1543,1039L1385,658L1243,1000Z" fill="#8745a0" stroke="#8745a0" stroke-width="1.51"/><path d="M1800,52L1502,142L1658,258Z" fill="#a14f9d" stroke="#a14f9d" stroke-width="1.51"/><path d="M1627,-99L1660,-120L1482,-207Z" fill="#b1569c" stroke="#b1569c" stroke-width="1.51"/><path d="M89,217L-118,569L74,626Z" fill="#c9609a" stroke="#c9609a" stroke-width="1.51"/><path d="M140,-160L24,-51L235,127Z" fill="#db6898" stroke="#db6898" stroke-width="1.51"/><path d="M1423,1193L1543,1039L1243,1000Z" fill="#7d42a1" stroke="#7d42a1" stroke-width="1.51"/><path d="M1881,186L1800,52L1658,258Z" fill="#9c4d9e" stroke="#9c4d9e" stroke-width="1.51"/><path d="M1543,1039L1662,911L1590,716Z" fill="#8042a1" stroke="#8042a1" stroke-width="1.51"/><path d="M24,-51L-116,258L89,217Z" fill="#d86698" stroke="#d86698" stroke-width="1.51"/><path d="M-116,748L76,964L71,664Z" fill="#ba5a9b" stroke="#ba5a9b" stroke-width="1.51"/><path d="M71,664L76,964L274,911Z" fill="#b4579c" stroke="#b4579c" stroke-width="1.51"/><path d="M-116,258L-118,569L89,217Z" fill="#d06399" stroke="#d06399" stroke-width="1.51"/><path d="M-135,-223L-46,-103L140,-160Z" fill="#e56d97" stroke="#e56d97" stroke-width="1.51"/><path d="M140,-160L-46,-103L24,-51Z" fill="#e16b97" stroke="#e16b97" stroke-width="1.51"/><path d="M24,-51L-184,203L-116,258Z" fill="#da6898" stroke="#da6898" stroke-width="1.51"/><path d="M1543,1039L1658,1183L1662,911Z" fill="#7740a1" stroke="#7740a1" stroke-width="1.51"/><path d="M980,1189L1423,1193L1068,1061Z" fill="#8344a0" stroke="#8344a0" stroke-width="1.51"/><path d="M1902,640L1766,470L1726,656Z" fill="#8746a0" stroke="#8746a0" stroke-width="1.51"/><path d="M1985,326L1881,186L1766,470Z" fill="#934a9f" stroke="#934a9f" stroke-width="1.51"/><path d="M1766,470L1881,186L1658,258Z" fill="#964b9f" stroke="#964b9f" stroke-width="1.51"/><path d="M-46,-103L-184,203L24,-51Z" fill="#df6a98" stroke="#df6a98" stroke-width="1.51"/><path d="M-116,258L-310,402L-118,569Z" fill="#d16499" stroke="#d16499" stroke-width="1.51"/><path d="M-118,569L-116,748L71,664Z" fill="#c25d9b" stroke="#c25d9b" stroke-width="1.51"/><path d="M-209,714L-116,748L-118,569Z" fill="#c55e9a" stroke="#c55e9a" stroke-width="1.51"/><path d="M1912,775L1902,640L1726,656Z" fill="#8143a0" stroke="#8143a0" stroke-width="1.51"/><path d="M1912,775L1726,656L1662,911Z" fill="#7f42a1" stroke="#7f42a1" stroke-width="1.51"/><path d="M1423,1193L1495,1250L1543,1039Z" fill="#753fa1" stroke="#753fa1" stroke-width="1.51"/><path d="M980,1189L1495,1250L1423,1193Z" fill="#7a41a1" stroke="#7a41a1" stroke-width="1.51"/><path d="M1978,-94L1660,-120L1800,52Z" fill="#a5509d" stroke="#a5509d" stroke-width="1.51"/><path d="M1902,640L1985,326L1766,470Z" fill="#8c479f" stroke="#8c479f" stroke-width="1.51"/><path d="M1902,640L1912,775L1985,326Z" fill="#8745a0" stroke="#8745a0" stroke-width="1.51"/><path d="M1919,988L1912,775L1662,911Z" fill="#7640a1" stroke="#7640a1" stroke-width="1.51"/><path d="M-183,1024L17,1116L76,964Z" fill="#b1559d" stroke="#b1559d" stroke-width="1.51"/><path d="M-311,546L-209,714L-118,569Z" fill="#ca6199" stroke="#ca6199" stroke-width="1.51"/><path d="M409,-330L-135,-223L140,-160Z" fill="#e46c97" stroke="#e46c97" stroke-width="1.51"/><path d="M-370,17L-301,214L-184,203Z" fill="#e16b97" stroke="#e16b97" stroke-width="1.51"/><path d="M76,964L17,1116L378,1105Z" fill="#aa539d" stroke="#aa539d" stroke-width="1.51"/><path d="M378,1105L-6,1197L607,1126Z" fill="#a04f9d" stroke="#a04f9d" stroke-width="1.51"/><path d="M980,1189L-6,1197L1495,1250Z" fill="#8b47a0" stroke="#8b47a0" stroke-width="1.51"/><path d="M-183,1024L76,964L-116,748Z" fill="#b8589c" stroke="#b8589c" stroke-width="1.51"/><path d="M1495,1250L1658,1183L1543,1039Z" fill="#733ea1" stroke="#733ea1" stroke-width="1.51"/><path d="M1482,-207L1812,-350L1057,-280Z" fill="#bb5a9b" stroke="#bb5a9b" stroke-width="1.51"/><path d="M1057,-280L1812,-350L409,-330Z" fill="#c96099" stroke="#c96099" stroke-width="1.51"/><path d="M1660,-120L1812,-350L1482,-207Z" fill="#b3569c" stroke="#b3569c" stroke-width="1.51"/><path d="M1978,-94L1812,-350L1660,-120Z" fill="#ac539d" stroke="#ac539d" stroke-width="1.51"/><path d="M1978,-94L1800,52L1881,186Z" fill="#a04f9e" stroke="#a04f9e" stroke-width="1.51"/><path d="M-370,17L-184,203L-46,-103Z" fill="#e26c97" stroke="#e26c97" stroke-width="1.51"/><path d="M-184,203L-310,402L-116,258Z" fill="#d76799" stroke="#d76799" stroke-width="1.51"/><path d="M-301,214L-310,402L-184,203Z" fill="#da6898" stroke="#da6898" stroke-width="1.51"/><path d="M-310,402L-311,546L-118,569Z" fill="#cf6399" stroke="#cf6399" stroke-width="1.51"/><path d="M-183,1024L-6,1197L17,1116Z" fill="#ae559d" stroke="#ae559d" stroke-width="1.51"/><path d="M1985,326L1978,-94L1881,186Z" fill="#9c4d9e" stroke="#9c4d9e" stroke-width="1.51"/><path d="M17,1116L-6,1197L378,1105Z" fill="#a7519d" stroke="#a7519d" stroke-width="1.51"/><path d="M-183,1024L-116,748L-209,714Z" fill="#be5b9b" stroke="#be5b9b" stroke-width="1.51"/><path d="M1912,775L2018,1102L1985,326Z" fill="#7f43a0" stroke="#7f43a0" stroke-width="1.51"/><path d="M1658,1183L1919,988L1662,911Z" fill="#723ea1" stroke="#723ea1" stroke-width="1.51"/><path d="M-274,1073L-183,1024L-368,973Z" fill="#b95a9b" stroke="#b95a9b" stroke-width="1.51"/><path d="M1978,-94L1966,-286L1812,-350Z" fill="#ad549c" stroke="#ad549c" stroke-width="1.51"/><path d="M-301,214L-370,17L-310,402Z" fill="#df6a98" stroke="#df6a98" stroke-width="1.51"/><path d="M-310,402L-370,17L-311,546Z" fill="#da6898" stroke="#da6898" stroke-width="1.51"/><path d="M-135,-223L-370,17L-46,-103Z" fill="#e86e97" stroke="#e86e97" stroke-width="1.51"/><path d="M-135,-223L-349,-227L-370,17Z" fill="#ed7196" stroke="#ed7196" stroke-width="1.51"/><path d="M409,-330L-349,-227L-135,-223Z" fill="#ea6f96" stroke="#ea6f96" stroke-width="1.51"/><path d="M-368,973L-183,1024L-209,714Z" fill="#be5b9b" stroke="#be5b9b" stroke-width="1.51"/><path d="M-183,1024L-274,1073L-6,1197Z" fill="#b2569c" stroke="#b2569c" stroke-width="1.51"/><path d="M-368,973L-209,714L-311,546Z" fill="#c75f9a" stroke="#c75f9a" stroke-width="1.51"/><path d="M1919,988L2018,1102L1912,775Z" fill="#733fa1" stroke="#733fa1" stroke-width="1.51"/><path d="M1985,326L2018,1102L1978,-94Z" fill="#8d489f" stroke="#8d489f" stroke-width="1.51"/><path d="M1658,1183L2018,1102L1919,988Z" fill="#6c3ca2" stroke="#6c3ca2" stroke-width="1.51"/><path d="M1495,1250L2018,1102L1658,1183Z" fill="#6b3ca1" stroke="#6b3ca1" stroke-width="1.51"/><path d="M-370,17L-368,973L-311,546Z" fill="#d36599" stroke="#d36599" stroke-width="1.51"/></svg>